# xmcd CD database file
#
# Track frame offsets:
#	150
#	63780
#	81533
#	118773
#	148741
#	188865
#	227035
#
# Disc length: 3404 seconds
#
# Revision: 0
# Processed by: cddbd v1.5.2PL0 Copyright (c) Steve Scherf et al.
# Submitted via: CDex 1.70beta2
#
DISCID=610d4a07
DTITLE=Feature Ring - Feature Ring
DYEAR=2007
DGENRE=Jazz
TTITLE0=Last Drop
TTITLE1=Bonalogy
TTITLE2=The Chase
TTITLE3=Mambo Inn
TTITLE4=Duke's Voice
TTITLE5=Gujasloka
TTITLE6='Round Midnight
EXTD=YEAR: 2007
EXTT0=
EXTT1=
EXTT2=
EXTT3=
EXTT4=
EXTT5=
EXTT6=
PLAYORDER=
